<svg xmlns="http://www.w3.org/2000/svg" version="1.1" viewBox="-5.0 -10.0 110.0 135.0">
 <path d="m87.254 64.59h-14.895c-0.72656 0-1.3164 0.58984-1.3164 1.3164v2.6016h-13.578c-0.72656 0-1.3164 0.58984-1.3164 1.3164v2.6016l-2.8672 0.003907c0.30859-0.56641 0.51953-1.1953 0.59766-1.875l1.5547-13.492c0.30469-2.6328-0.82031-5.1016-3.0039-6.6055l-1.8945-1.3047 1.1211-9.7461 4.9766 5.0352c1.7773 1.7969 4.6836 1.8164 6.4844 0.039063 1.7969-1.7773 1.8164-4.6836 0.039062-6.4844l-9.2227-9.332c-1.1445-1.1562-2.4844-1.8086-4.1016-1.9961l-9.5469-1.0977c-1.8945-0.21875-3.6172 0.26563-5.1211 1.4336l-10.059 7.8125c-0.89844 0.69922-1.4883 1.6875-1.6914 2.8047-0.78906-0.38281-1.6758-0.50391-2.5508-0.32812-1.0664 0.21094-1.9844 0.82031-2.5859 1.7188l-1.2852 1.9141-2.0391-1.3672c-0.57422-0.38672-1.2656-0.52344-1.9492-0.39062-0.67969 0.13281-1.2695 0.52344-1.6523 1.1016l-6.3828 9.5117c-0.38672 0.57422-0.52344 1.2656-0.39062 1.9492 0.13281 0.67969 0.52344 1.2695 1.1016 1.6523l15.137 10.152c0.44141 0.29688 0.94531 0.4375 1.4414 0.4375 0.83594 0 1.6602-0.40234 2.1602-1.1484l6.3789-9.5117c0.79688-1.1875 0.47656-2.8047-0.71094-3.6016l-2.0391-1.3672 1.2852-1.9141c0.60156-0.89844 0.81641-1.9805 0.60938-3.043-0.050781-0.25781-0.125-0.50391-0.22266-0.74219 0.35156-0.14844 0.6875-0.33984 1.0039-0.58203l4.3711-3.3984-1.207 10.477-7.8398 23.082c-0.4375 1.2891-0.34766 2.6758 0.25781 3.9062 0.11328 0.23047 0.25 0.44922 0.39453 0.65625-0.21094 0.23438-0.33984 0.54297-0.33984 0.88281v2.6016l-13.578-0.003906c-0.72656 0-1.3164 0.58984-1.3164 1.3164v13.977c0 0.72656 0.58984 1.3164 1.3164 1.3164h74.477c0.72656 0 1.3164-0.58984 1.3164-1.3164l-0.003907-29.656c0-0.72656-0.58984-1.3125-1.3164-1.3125zm-13.578 2.6328h12.262v27.023l-12.262-0.003906zm-14.895 3.918h12.262v23.102h-12.262zm-2.6328 23.102h-12.262v-19.184h4.418c0.33594 0.03125 0.66406 0.03125 0.98828 0h6.8555zm-27.156-15.266h1.8281c0.023438 0 0.046876 0.003907 0.070313 0.003907s0.046875-0.003907 0.070313-0.003907h10.293v15.266h-12.262zm15.32-6.5508h-1.7422c-0.72656 0-1.3164 0.58984-1.3164 1.3164v2.6016h-5.8867c0.14453-0.26172 0.27344-0.54297 0.37109-0.83594l6.6406-19.543 2.6641 1.832-1.332 11.582c-0.12109 1.0664 0.089843 2.125 0.60156 3.0469zm-22.059-11.098-15.078-10.109 3.582-5.3398 4.6953 3.1484-0.19922 0.29688c-0.19531 0.28906-0.26562 0.64453-0.19922 0.98828 0.066406 0.34375 0.26953 0.64453 0.55859 0.83984l3.5 2.3477c0.21875 0.14844 0.47266 0.22266 0.73438 0.22266 0.085938 0 0.16797-0.007812 0.25391-0.023437 0.34375-0.066407 0.64453-0.26953 0.83984-0.55859l0.19922-0.29688 4.6953 3.1484zm-4.0781-11.633 0.39844-0.59375 1.3164 0.88281-0.39844 0.59375zm9.125 4.1055-4.6953-3.1484 0.19922-0.29688c0.40625-0.60547 0.24219-1.4219-0.35938-1.8242l-3.5-2.3477c-0.60156-0.40625-1.4219-0.24219-1.8242 0.35938l-0.19922 0.29688-4.6953-3.1484 1.2891-1.9258 15.074 10.109zm-8.125-11.41 1.2852-1.9141c0.21094-0.3125 0.53516-0.52734 0.91016-0.60156s0.75781 0 1.0703 0.21094l2.082 1.3945c0.5 0.47266 1.0508 0.83594 1.6211 1.0859l0.61719 0.41406c0.3125 0.21094 0.52734 0.53516 0.60156 0.91016s0 0.75781-0.21094 1.0703l-1.2852 1.9141zm9.9336-2.4141c-0.54297 0.42188-1.1875 0.43359-1.7734 0.22656l-1.0703-0.71875c-0.24219-0.38281-0.34766-0.83203-0.28906-1.293 0.066407-0.51953 0.32422-0.98047 0.73438-1.3008l10.059-7.8125c0.95703-0.74219 2.0039-1.0352 3.207-0.89844l9.5469 1.0977c1.0117 0.11719 1.8164 0.50781 2.5312 1.2305l9.2227 9.332c0.75781 0.76562 0.75 2.0039-0.015625 2.7617-0.76562 0.75781-2.0039 0.75-2.7617-0.015624l-6.8984-6.9805c-0.074218-0.078125-0.16016-0.14453-0.25391-0.20312 0 0-0.003906 0-0.003906-0.003906h-0.003906c-0.18359-0.11328-0.38672-0.17578-0.58984-0.1875-0.17969-0.011719-0.35547 0.011718-0.51953 0.066406-0.17188 0.058594-0.33203 0.15234-0.47266 0.28516-0.078124 0.074219-0.14844 0.15234-0.20703 0.24609v0.003906 0.003906 0.003906c-0.11328 0.17578-0.17969 0.37109-0.19922 0.57031l-1.5234 13.223c-0.007813 0.058594-0.011719 0.11719-0.011719 0.17578 0 0.19531 0.042969 0.37891 0.11719 0.54688 0.074218 0.16797 0.1875 0.32031 0.33203 0.44531 0.042969 0.039062 0.089844 0.074219 0.14062 0.10938l2.5273 1.7344c1.3867 0.95312 2.0742 2.4609 1.8828 4.1328l-1.5508 13.492c-0.13281 1.1523-1.0352 2.0273-2.1328 2.1758h-0.66797c-0.63281-0.085937-1.2031-0.41016-1.6055-0.91797-0.41406-0.52344-0.60156-1.1719-0.52734-1.8242l1.4219-12.34c0.007813-0.058594 0.011719-0.11719 0.011719-0.17578 0-0.19531-0.042969-0.38281-0.12109-0.55078-0.074219-0.16406-0.1875-0.31641-0.33203-0.44141-0.042969-0.039062-0.09375-0.074219-0.14453-0.10938l-4.707-3.2344c-0.015626-0.011719-0.03125-0.023437-0.046876-0.03125l-5.8359-4.0078 1.4258-12.391 1.8633-1.4453c0.57422-0.44531 0.67969-1.2734 0.23047-1.8477-0.44531-0.57422-1.2734-0.67969-1.8477-0.23047zm-0.57031 33.086 7.3281-21.57 4.2539 2.9258-6.8789 20.242c-0.35156 1.0273-1.3125 1.6797-2.3438 1.6836h-0.097657c-0.23828-0.007812-0.47656-0.050781-0.71094-0.12891-0.625-0.21094-1.1289-0.66016-1.4258-1.2578-0.28906-0.59375-0.33594-1.2695-0.125-1.8945zm-2.1797 9.8359v11.348l-12.262-0.003906v-11.344zm68.117-38.836-2.0391-0.51562c-0.24219-0.78516-0.55859-1.543-0.94141-2.2734l1.0781-1.8086c0.30859-0.51953 0.22656-1.1797-0.19922-1.6055l-2.9805-2.9766c-0.42578-0.42578-1.0859-0.50781-1.6055-0.19922l-1.8086 1.0781c-0.72656-0.38672-1.4883-0.69922-2.2734-0.94141l-0.51953-2.043c-0.14844-0.58594-0.67578-0.99219-1.2773-0.99219h-4.2109c-0.60156 0-1.1289 0.41016-1.2773 0.99219l-0.51953 2.043c-0.78516 0.24219-1.543 0.55859-2.2734 0.94141l-1.8086-1.0781c-0.51562-0.30859-1.1797-0.22656-1.6055 0.19922l-2.9805 2.9766c-0.42578 0.42578-0.50781 1.0859-0.19922 1.6055l1.0781 1.8086c-0.38672 0.72656-0.69922 1.4883-0.94141 2.2734l-2.0312 0.51562c-0.58594 0.14844-0.99219 0.67578-0.99219 1.2773v4.2109c0 0.60156 0.41016 1.1289 0.99219 1.2773l2.0391 0.51562c0.24219 0.78516 0.55859 1.543 0.94141 2.2734l-1.0781 1.8086c-0.30859 0.51953-0.22656 1.1797 0.19922 1.6055l2.9805 2.9766c0.42578 0.42578 1.0859 0.50781 1.6055 0.19922l1.8086-1.0781c0.72656 0.38281 1.4883 0.69922 2.2734 0.94141l0.51953 2.043c0.14844 0.58594 0.67578 0.99219 1.2773 0.99219h4.2109c0.60156 0 1.1289-0.41016 1.2773-0.99219l0.51563-2.0391c0.78516-0.24219 1.5469-0.55859 2.2734-0.94141l1.8086 1.0781c0.51953 0.30859 1.1797 0.22656 1.6055-0.19922l2.9805-2.9766c0.42578-0.42578 0.50781-1.0859 0.19922-1.6055l-1.0781-1.8086c0.38672-0.72656 0.69922-1.4883 0.94141-2.2734l2.0391-0.51953c0.58594-0.14844 0.99219-0.67188 0.99219-1.2773v-4.2109c-0.003906-0.60547-0.41406-1.1289-0.99609-1.2773zm-1.6406 4.4648-1.7891 0.45312c-0.47266 0.12109-0.83984 0.49219-0.95703 0.96484-0.25781 1.0586-0.67578 2.0664-1.2422 3-0.25391 0.41797-0.25781 0.94141-0.007812 1.3594l0.94531 1.5898-1.5312 1.5312-1.5859-0.94531c-0.41797-0.25-0.94141-0.24609-1.3594 0.007812-0.93359 0.57031-1.9414 0.98828-3 1.2422-0.47266 0.11328-0.84766 0.48047-0.96484 0.95703l-0.45312 1.7891h-2.1641l-0.45312-1.7891c-0.12109-0.47266-0.49219-0.83984-0.96484-0.95703-1.0586-0.25781-2.0664-0.67578-3-1.2422-0.41797-0.25391-0.94141-0.25781-1.3594-0.007812l-1.5859 0.94531-1.5312-1.5312 0.94531-1.5859c0.25-0.41797 0.24609-0.94141-0.007813-1.3594-0.57031-0.93359-0.98828-1.9414-1.2422-3-0.11328-0.47266-0.48047-0.84766-0.95703-0.96484l-1.7891-0.45312v-2.1641l1.7891-0.45313c0.47266-0.12109 0.83984-0.49219 0.95703-0.96484 0.25781-1.0586 0.67578-2.0664 1.2422-3 0.25391-0.41797 0.25781-0.94141 0.007813-1.3594l-0.94531-1.5859 1.5312-1.5312 1.5859 0.94531c0.41797 0.25 0.94141 0.24609 1.3594-0.007813 0.93359-0.57031 1.9414-0.98828 3-1.2422 0.47266-0.11328 0.84766-0.48438 0.96484-0.95703l0.45312-1.7891h2.1641l0.45312 1.7891c0.12109 0.47266 0.49219 0.83984 0.96484 0.95703 1.0586 0.25781 2.0664 0.67578 3 1.2422 0.41797 0.25391 0.94141 0.25781 1.3594 0.007813l1.5898-0.94531 1.5312 1.5312-0.94531 1.5859c-0.25 0.41797-0.24609 0.94141 0.007812 1.3594 0.57031 0.93359 0.98828 1.9414 1.2422 3 0.11328 0.47266 0.48438 0.84766 0.95703 0.96484l1.7891 0.45313zm-13.027-10.363c-5.1172 0-9.2812 4.1641-9.2812 9.2812 0 5.1172 4.1641 9.2812 9.2812 9.2812 5.1172 0 9.2812-4.1641 9.2812-9.2812 0-5.1211-4.1641-9.2812-9.2812-9.2812zm0 15.93c-3.668 0-6.6484-2.9844-6.6484-6.6484 0-3.668 2.9844-6.6484 6.6484-6.6484 3.668 0 6.6484 2.9844 6.6484 6.6484 0 3.668-2.9805 6.6484-6.6484 6.6484zm3.9297-8.7539-3.3906 5.5742c-0.21094 0.35156-0.57812 0.58203-0.98438 0.625-0.046875 0.003907-0.09375 0.007813-0.14062 0.007813-0.35938 0-0.70703-0.14844-0.95312-0.41016l-2.2227-2.3438c-0.5-0.52734-0.47656-1.3594 0.050781-1.8594s1.3594-0.47656 1.8594 0.050781l1.0391 1.0938 2.4961-4.1055c0.37891-0.62109 1.1875-0.82031 1.8086-0.44141 0.61719 0.37891 0.81641 1.1875 0.4375 1.8086zm-14.301-27.938h4.082v11.891c0 0.72656 0.58984 1.3164 1.3164 1.3164h9.9414c0.72656 0 1.3164-0.58984 1.3164-1.3164v-11.891h4.082c0.51953 0 0.98828-0.30469 1.1992-0.77734s0.12891-1.0273-0.21875-1.4141l-10.367-11.645c-0.25-0.28125-0.60547-0.44141-0.98047-0.44141s-0.73438 0.16016-0.98438 0.44141l-10.367 11.645c-0.34375 0.38672-0.42969 0.94141-0.21875 1.4141 0.21094 0.47266 0.68359 0.77734 1.1992 0.77734zm10.371-10.984 7.4336 8.3477h-2.4648c-0.72656 0-1.3164 0.58984-1.3164 1.3164v11.891h-7.3086v-11.887c0-0.72656-0.58984-1.3164-1.3164-1.3164h-2.4648zm-34.832 18.695c0.32422 0.039063 0.64844 0.054688 0.97266 0.054688 4.2266 0 7.8828-3.1797 8.3789-7.4766 0.53125-4.6211-2.7969-8.8164-7.418-9.3516-2.2383-0.25781-4.4453 0.37109-6.2109 1.7734-1.7656 1.4023-2.8789 3.4062-3.1367 5.6445-0.25781 2.2383 0.37109 4.4453 1.7734 6.2109 1.3945 1.7695 3.4023 2.8867 5.6406 3.1445zm-4.8047-9.0508c0.17578-1.543 0.94531-2.9219 2.1602-3.8867 1.0391-0.82422 2.293-1.2578 3.5977-1.2578 0.22266 0 0.44922 0.011719 0.67578 0.039062 3.1797 0.36719 5.4727 3.2539 5.1055 6.4336-0.36719 3.1797-3.25 5.4727-6.4336 5.1055-1.543-0.17578-2.9219-0.94531-3.8867-2.1602-0.96094-1.2148-1.3945-2.7305-1.2188-4.2734z"/>
</svg>