<svg xmlns="http://www.w3.org/2000/svg" width="865.76" height="682.89" viewBox="0 0 865.76 682.89"><path d="M597.68,532.17s199.23,17.15,196.44-140.52c0,0,11-123.55-79.67-197.22A182.93,182.93,0,0,0,637,157.85C614.28,153,575.55,142.45,535.63,121c0,0-172.51-124.14-358-9.77,0,0-139.48,90.64-99,242.69,0,0,25.86,161,273.76,152.34C352.34,506.27,514.21,527.68,597.68,532.17Z" fill="#0a528e"/><path d="M597.68,532.17s199.23,17.15,196.44-140.52c0,0,11-123.55-79.67-197.22A182.93,182.93,0,0,0,637,157.85C614.28,153,575.55,142.45,535.63,121c0,0-172.51-124.14-358-9.77,0,0-139.48,90.64-99,242.69,0,0,25.86,161,273.76,152.34C352.34,506.27,514.21,527.68,597.68,532.17Z" fill="#fff" opacity="0.7" style="isolation:isolate"/><ellipse cx="453.59" cy="603.56" rx="282.5" ry="40.67" fill="#0a528e"/><ellipse cx="453.59" cy="603.56" rx="282.5" ry="40.67" fill="#fff" opacity="0.7" style="isolation:isolate"/><polygon points="540.93 579.77 540.93 605.15 514.34 609.98 505.88 597.89 505.88 580.98 540.93 579.77" fill="#da874e"/><polygon points="568.72 579.77 568.72 605.15 542.14 609.98 533.68 597.89 533.68 587.02 568.72 579.77" fill="#f5b68b"/><path d="M514.34,607.56s3.76-9.39-5.28-10.79a8,8,0,0,0-6.69,2.16c-2.7,2.58-7.42,7-12.24,10.76a27,27,0,0,1-6.88,3.95c-6.39,2.53-19.45,8.35-14.83,12.05,0,0,4.84,2.42,30.21,1.21l42.3-1.21,1.14-25.08a1.43,1.43,0,0,0-1.48-1.5,35.5,35.5,0,0,0-17.79,6C519.18,607.56,518,607.56,514.34,607.56Z" fill="#0a528e"/><path d="M514.34,607.56s3.76-9.39-5.28-10.79a8,8,0,0,0-6.69,2.16c-2.7,2.58-7.42,7-12.24,10.76a27,27,0,0,1-6.88,3.95c-6.39,2.53-19.45,8.35-14.83,12.05,0,0,4.84,2.42,30.21,1.21l42.3-1.21,1.14-25.08a1.43,1.43,0,0,0-1.48-1.5,35.5,35.5,0,0,0-17.79,6C519.18,607.56,518,607.56,514.34,607.56Z" opacity="0.2"/><path d="M468.42,625.69a7.3,7.3,0,0,0-.73,1.54,3.39,3.39,0,0,0,3.2,4.5H537.3s4.84,0,3.63-6l-65.09,1.47A34.12,34.12,0,0,1,468.42,625.69Z" fill="#0c0c0c"/><path d="M503.47,584.6H522.8L570.63,393h-48s-8.29,4.26-8.29,39.31Z" fill="#097bd7"/><path d="M503.47,584.6H522.8L569.63,393h-47s-8.29,4.26-8.29,39.31Z" opacity="0.2"/><path d="M639.1,212.25l-.29,5a36.46,36.46,0,0,0-16.91,7.25c-10.19-12.45-3.34-29.35-2.42-31.46v7.64a5.69,5.69,0,0,0,2.85,4.91l11.45,6.53A5.61,5.61,0,0,0,639.1,212.25Z" fill="#71110b"/><path d="M627.45,208.53s-2,8.21,2.29,11.48c0,0,3.64-1,9.07-2.78l.29-5s-3.31.75-5.32-.15Z" opacity="0.2"/><path d="M595.53,275.06l-3.85,17.09-49.54,31.42S522.8,326,516.76,334.45l-6.82,10.24a.94.94,0,0,0,.11,1.18h0a.94.94,0,0,0,1.33,0l3-3-2.79,4.65a1.51,1.51,0,0,0,.62,2.12h0a1.51,1.51,0,0,0,1.73-.29l5.88-5.88a.86.86,0,0,1,1.21,0h0a.86.86,0,0,1,0,1.21l-6.62,6.62a1.75,1.75,0,0,0,0,2.47h0a1.76,1.76,0,0,0,2.42.06L528.2,343.5a.91.91,0,0,1,1.26,0h0a.91.91,0,0,1,.06,1.23l-3.86,4.63a2.32,2.32,0,0,0,.5,3.41h0a2.32,2.32,0,0,0,2.81-.18l6.44-5.64a7.18,7.18,0,0,1,4.4-1.76l25.29-1.1L614,322.28l.61-35Z" fill="#f5b68b"/><path d="M595.53,275.06l-2.73,12.79s19.34,14.23,20,25l-1.88-28.11Z" fill="#da874e"/><path d="M664.19,166.47v30.21l-3.14,3.15a25.27,25.27,0,0,1-6.56,4.73l-15.39,7.69a5.61,5.61,0,0,1-5.32-.15l-11.45-6.53a5.69,5.69,0,0,1-2.85-4.91v-35.4c0-8.45,10.88-13.29,10.88-13.29Z" fill="#f5b68b"/><path d="M619.58,189.2s-15.81-10.64-9.77-31.19c0,0,3.63-14.5,23-13.29,0,0,8.46-16.92,30.21-7.25,0,0,9.67-9.67,19.34,1.21,0,0,7.25,9.67-1.21,18.13,0,0,6,3.62,2.42,26.58,0,0,1.21,10.88,13.29,18.13,0,0,31.42,16.92,25.38,49.55,0,0-6-29-29-30.22l-25.38-2.41-3.63-21.76-3.62-19.33s-27.8-4.83-30.21-25.38c0,0-10.88,4.84-10.88,13.29Z" fill="#71110b"/><path d="M667.82,218.44l18.95,1.89-15.4-26.87s-1.14,3.22-7.18,3.22Z" opacity="0.2"/><path d="M619.58,189.2s-5.33-4.21-6.91-13.67a19.07,19.07,0,0,1,2-12.61,14.42,14.42,0,0,1,9.67-7.32s-4.83,3.62-4.83,9.66Z" opacity="0.2"/><path d="M630.36,152s0,27.8,30.21,25.38" fill="none" stroke="#71110b" stroke-linecap="round" stroke-linejoin="round"/><path d="M640,149.55c3.29,12.69,15.28,19,27.38,21,1.74.25,3.5.45,5.25.74a47.57,47.57,0,0,1-14.51-2c-8.85-2.85-17-10.16-18.12-19.78Z" fill="#fff" opacity="0.2"/><path d="M646.07,142.3s16.91,1.21,19.33,16.92c0,0-6.83-1-10-3.8a.22.22,0,0,0-.34.26c1.19,2,4.76,6.12,15.14,9.58,0,0-18.12,3.63-24.16-15.71h8.45S653.32,147.14,646.07,142.3Z" fill="#fff" opacity="0.2"/><path d="M639.1,212.25l-.29,5-3.17.48s-3.47,19.46,11.12,22.4a13.61,13.61,0,0,0,8.77-1.43c5.06-2.52,14.55-8.73,20.14-19.64l-7.85-.6-3.63-21.76-3.14,3.15a25.27,25.27,0,0,1-6.56,4.73Z" fill="#f5b68b"/><path d="M722.2,251.07c1.9,7.05,1.62,14.69,2,20.85.4,7.09.31,14.2,0,21.29-.69,16.9,1.4,27,2.84,31.82a86.51,86.51,0,0,1,2.72,11.9c4.18,27.93-3.92,28.94-3.92,28.94l-100.3-1.21c-13.29-19.33-14.5-78.55-14.5-78.55l-23-15.71s14.5-33.84,33.84-45.92a33.32,33.32,0,0,1,13.74-6.77s-1,8.58,2,14.9,10.47,8.83,17,6.44c.3-.11.61-.24.92-.37A48.09,48.09,0,0,0,675.67,219l17.53,1.81S713.74,219.65,722.2,251.07Z" fill="#0a528e"/><path d="M717.36,282.49s2.42,19.33-4.83,37.46c0,0-11.18,32.06-7.4,46.24l-79.61-1.53,36.26-30.21,43-25.62,4.11,1.45S713.74,300.61,717.36,282.49Z" opacity="0.2"/><polygon points="598.69 277.55 611.02 257.11 611.02 286.11 598.69 277.55" opacity="0.2"/><path d="M514.34,590.64l71.3-1.2L613.44,465s-8.46-15.71,9.66-20.54a153.39,153.39,0,0,1,42.3-6s58,6,62.84-43.51l-2.42-29-100.3-1.21s-60.42-13.29-76.13,58Z" fill="#097bd7"/><path d="M613.44,465l-9.67-21.75,24.43.09S605,444.42,613.44,465Z" opacity="0.2"/><path d="M558.28,589.35c7.7-39,16-77.86,25.4-116.47,3.6-14.45,7.2-29,12.1-43.06a12.86,12.86,0,0,1,11.35-9.07L627,420l39.71-1.41,5-.18a37.32,37.32,0,0,0,21-6c.6-.47,2.38-1.72,3-2.21.85-.81,1.88-1.69,2.71-2.52A39.19,39.19,0,0,0,701.5,404a37.71,37.71,0,0,0,3.24-5.24c.44-1.09,1-2.31,1.47-3.4.17-.65.93-2.86,1.09-3.54.2-.91.53-2.75.72-3.64l.21-2.47c.51-6.61-1.36-13.16-3.1-19.48,1.75,5.93,3.45,12,3.43,18.26,0,.71-.23,3-.27,3.72s-.5,2.85-.67,3.68-.81,2.81-1.07,3.59c-.41,1.11-1,2.35-1.44,3.46-.36.68-1.39,2.57-1.79,3.29-.64,1-1.46,2.09-2.14,3.08-.49.6-1.91,2.22-2.46,2.83-.84.85-1.86,1.74-2.74,2.57-.6.49-2.33,1.76-3,2.26a38,38,0,0,1-21.3,6.17l-5,.19L627,420.87l-19.84.8a11.88,11.88,0,0,0-10.49,8.48c-4.85,14.05-8.58,28.53-12.21,42.93-9.59,38.56-17.92,77.42-26.21,116.27Z" fill="#fff"/><polygon points="639.11 212.25 638.82 223.27 658.24 202.36 639.11 212.25" fill="#da874e"/><polygon points="653.32 462.55 672.65 480.67 677.49 480.67 677.49 588.23 629.15 616.02 631.56 622.06 685.95 595.48 742.74 623.27 743.95 617.23 690.78 587.02 690.78 480.67 696.82 480.67 717.37 462.55 653.32 462.55" fill="#0c0c0c"/><circle cx="629.15" cy="624.48" r="9.67" fill="#00396e"/><circle cx="740.33" cy="624.48" r="9.67" fill="#00396e"/><path d="M551.51,347.74h18.71a13,13,0,0,1,13,13v2.71a0,0,0,0,1,0,0H538.51a0,0,0,0,1,0,0v-2.71a13,13,0,0,1,13-13Z" fill="#71110b"/><path d="M497.6,214.81h6.31a4,4,0,0,1,3.89,3.1l25,110.39a3.39,3.39,0,0,1-3,4.13l-7.63.81Z" fill="#71110b"/><path d="M497.6,214.81h6.31a4,4,0,0,1,3.89,3.1l25,110.39a3.39,3.39,0,0,1-3,4.13l-7.63.81Z" opacity="0.2"/><rect x="136.05" y="38.66" width="255.01" height="235.9" rx="10.74" fill="#097bd7"/><path d="M391.06,49.4V68.52h-255V49.4A10.74,10.74,0,0,1,146.8,38.66H380.32A10.74,10.74,0,0,1,391.06,49.4Z" fill="#fff" opacity="0.2"/><circle cx="158.75" cy="55.38" r="4.18" fill="#fff"/><circle cx="173.68" cy="55.38" r="4.18" fill="#fff"/><circle cx="189.8" cy="55.38" r="4.18" fill="#fff"/><rect x="250.72" y="50.6" width="122.43" height="7.17" rx="2.97" fill="#fff"/><path d="M263.86,172.44a43.93,43.93,0,0,1-22.25-6,.61.61,0,0,1-.21-.83.6.6,0,0,1,.83-.21,42.81,42.81,0,1,0-7.69-5.79.61.61,0,0,1,0,.86.6.6,0,0,1-.85,0A43.51,43.51,0,0,1,220,128.54a43.91,43.91,0,1,1,43.91,43.9Z" fill="#00396e"/><path d="M270.46,129.22a16.13,16.13,0,1,0-13.75-.26c-14.79,2.86-25.1,17.2-25.1,17.2A38,38,0,0,0,245,159.07a37.33,37.33,0,0,0,34.09,1.75c12-5.45,15.83-14.66,15.83-14.66A37.62,37.62,0,0,0,270.46,129.22Z" fill="#fff"/><rect x="198.76" y="190.35" width="129.6" height="22.69" fill="#fff"/><rect x="208.32" y="198.11" width="112.28" height="7.76" rx="3.21" fill="#0a528e"/><rect x="198.76" y="230.36" width="129.6" height="22.69" fill="#fff"/><path d="M215.48,249.18a.6.6,0,0,1-.6-.6V234.84a.61.61,0,0,1,1.21,0v13.74A.6.6,0,0,1,215.48,249.18Z" fill="#0a528e"/><path d="M221.45,245.6a.6.6,0,0,1-.29-.08l-12.55-7.17a.59.59,0,0,1-.22-.82.6.6,0,0,1,.82-.23l12.54,7.17a.61.61,0,0,1,.23.83A.62.62,0,0,1,221.45,245.6Z" fill="#0a528e"/><path d="M209.51,245.6a.61.61,0,0,1-.52-.29.6.6,0,0,1,.21-.83l11.94-7.17a.6.6,0,0,1,.83.21.61.61,0,0,1-.2.83l-12,7.16A.59.59,0,0,1,209.51,245.6Z" fill="#0a528e"/><path d="M235.19,249.18a.6.6,0,0,1-.6-.6V234.84a.6.6,0,0,1,.6-.6.61.61,0,0,1,.61.6v13.74A.61.61,0,0,1,235.19,249.18Z" fill="#0a528e"/><path d="M241.16,245.6a.67.67,0,0,1-.3-.08l-12.54-7.17a.59.59,0,0,1-.22-.82.6.6,0,0,1,.82-.23l12.54,7.17a.6.6,0,0,1-.3,1.13Z" fill="#0a528e"/><path d="M229.22,245.6a.59.59,0,0,1-.52-.29.6.6,0,0,1,.21-.83l11.94-7.17a.61.61,0,0,1,.62,1l-11.94,7.16A.61.61,0,0,1,229.22,245.6Z" fill="#0a528e"/><path d="M254.3,249.18a.6.6,0,0,1-.6-.6V234.84a.61.61,0,0,1,1.21,0v13.74A.6.6,0,0,1,254.3,249.18Z" fill="#0a528e"/><path d="M260.27,245.6a.67.67,0,0,1-.3-.08l-12.54-7.17a.59.59,0,0,1-.22-.82.6.6,0,0,1,.82-.23l12.54,7.17a.6.6,0,0,1-.3,1.13Z" fill="#0a528e"/><path d="M248.33,245.6a.61.61,0,0,1-.52-.29.6.6,0,0,1,.21-.83L260,237.31a.6.6,0,0,1,.83.21.61.61,0,0,1-.2.83l-11.95,7.16A.59.59,0,0,1,248.33,245.6Z" fill="#0a528e"/><path d="M274,249.18a.6.6,0,0,1-.6-.6V234.84a.6.6,0,1,1,1.2,0v13.74A.6.6,0,0,1,274,249.18Z" fill="#0a528e"/><path d="M280,245.6a.67.67,0,0,1-.3-.08l-12.54-7.17a.59.59,0,0,1-.22-.82.6.6,0,0,1,.82-.23l12.54,7.17a.6.6,0,0,1-.3,1.13Z" fill="#0a528e"/><path d="M268,245.6a.59.59,0,0,1-.52-.29.6.6,0,0,1,.21-.83l11.94-7.17a.61.61,0,1,1,.62,1l-11.94,7.16A.61.61,0,0,1,268,245.6Z" fill="#0a528e"/><path d="M297.3,248.29H284.76a.61.61,0,0,1,0-1.21H297.3a.61.61,0,1,1,0,1.21Z" fill="#0a528e"/><path d="M317.91,248.29H305.36a.61.61,0,0,1,0-1.21h12.55a.61.61,0,0,1,0,1.21Z" fill="#0a528e"/><path d="M340.34,243.51h-3.62a.61.61,0,1,1,0-1.21h3.62a.61.61,0,1,1,0,1.21Z" fill="#00396e"/><path d="M399.19,243.51h-7.35a.61.61,0,1,1,0-1.21h7.35a.61.61,0,1,1,0,1.21Zm-14.71,0h-7.36a.61.61,0,0,1,0-1.21h7.36a.61.61,0,1,1,0,1.21Zm-14.71,0h-7.36a.61.61,0,0,1,0-1.21h7.36a.61.61,0,0,1,0,1.21Zm-14.71,0H347.7a.61.61,0,0,1,0-1.21h7.36a.61.61,0,0,1,0,1.21Z" fill="#00396e"/><path d="M410.18,243.51h-3.63a.61.61,0,0,1,0-1.21h3v-3a.61.61,0,0,1,1.21,0v3.63A.6.6,0,0,1,410.18,243.51Z" fill="#00396e"/><path d="M410.18,231.93a.6.6,0,0,1-.61-.6v-8a.61.61,0,0,1,1.21,0v8A.6.6,0,0,1,410.18,231.93Zm0-15.91a.6.6,0,0,1-.61-.6v-7.95a.61.61,0,1,1,1.21,0v7.95A.6.6,0,0,1,410.18,216Zm0-15.9a.61.61,0,0,1-.61-.61v-7.95a.61.61,0,0,1,1.21,0v7.95A.6.6,0,0,1,410.18,200.12Zm0-15.91a.6.6,0,0,1-.61-.6v-8a.61.61,0,0,1,1.21,0v8A.6.6,0,0,1,410.18,184.21Z" fill="#00396e"/><path d="M410.18,168.3a.6.6,0,0,1-.61-.6v-3.63a.61.61,0,0,1,1.21,0v3.63A.6.6,0,0,1,410.18,168.3Z" fill="#00396e"/><path d="M426.91,91.8a22.39,22.39,0,0,0-38.23,15.84v5.07h7.16v-4.48a15.23,15.23,0,0,1,30.46,0v4.48h7.17v-5.07A22.33,22.33,0,0,0,426.91,91.8Z" fill="#00396e"/><path d="M154.66,143.18h-68a5.56,5.56,0,0,1-5.55-5.56V99.15a5.57,5.57,0,0,1,5.55-5.56h52.82A5.57,5.57,0,0,1,145,99.15V131.6Zm-68-48.38a4.35,4.35,0,0,0-4.34,4.35v38.47A4.35,4.35,0,0,0,86.65,142h65.43L143.81,132V99.15a4.35,4.35,0,0,0-4.34-4.35Z" fill="#0a528e"/><path d="M133.07,109.14H94.25a.61.61,0,1,1,0-1.21h38.82a.61.61,0,0,1,0,1.21Z" fill="#0a528e"/><path d="M133.07,119.29H94.25a.61.61,0,1,1,0-1.21h38.82a.61.61,0,0,1,0,1.21Z" fill="#0a528e"/><path d="M122.32,130H94.25a.61.61,0,1,1,0-1.21h28.07a.61.61,0,0,1,0,1.21Z" fill="#0a528e"/><path d="M124.71,302a44.2,44.2,0,0,1-38.28-66.32.6.6,0,0,1,1,.6,43.05,43.05,0,1,0,12.43-13.6.6.6,0,0,1-.84-.15.61.61,0,0,1,.14-.84A44.2,44.2,0,1,1,124.71,302Z" fill="#00396e"/><polygon points="96.04 256.64 103.8 248.88 118.73 264.41 146.5 236.63 153.97 244.1 118.73 279.93 96.04 256.64" fill="#00396e"/><path d="M299.69,344.44a.55.55,0,0,1-.28-.07.6.6,0,0,1-.3-.36L293,324.45a.6.6,0,0,1,.4-.75.61.61,0,0,1,.76.4l5.9,19,59.15-18.75-13.95-42.45L286.71,300l5.12,16.46a.61.61,0,1,1-1.16.36l-5.29-17a.61.61,0,0,1,0-.46.6.6,0,0,1,.36-.3l59.72-18.51a.6.6,0,0,1,.75.39l14.33,43.6a.61.61,0,0,1,0,.46.63.63,0,0,1-.36.3l-60.32,19.11Z" fill="#0a528e"/><path d="M322.9,320.19a8.69,8.69,0,0,1-4.33-1.15l-32.92-18.87a.61.61,0,0,1-.22-.83.6.6,0,0,1,.82-.22L319.17,318a7.49,7.49,0,0,0,10.54-3.38l15.42-33.73a.6.6,0,0,1,.8-.3.62.62,0,0,1,.3.8L330.8,315.11a8.7,8.7,0,0,1-5.25,4.67A8.57,8.57,0,0,1,322.9,320.19Z" fill="#0a528e"/><path d="M299.69,344.44a.57.57,0,0,1-.25-.06.59.59,0,0,1-.3-.8l13.14-28.66a.6.6,0,0,1,1.1.5l-13.14,28.67A.6.6,0,0,1,299.69,344.44Z" fill="#0a528e"/><path d="M360,325.33a.64.64,0,0,1-.3-.08l-27.07-15.76a.61.61,0,0,1-.22-.83.59.59,0,0,1,.82-.22l27.07,15.76a.61.61,0,0,1-.3,1.13Z" fill="#0a528e"/><ellipse cx="665.4" cy="187.02" rx="8.46" ry="9.67" fill="#f5b68b"/><path d="M706.49,309.07l-45.92-20.54,16.92-37.46-3.28,30.59a5.63,5.63,0,0,0,2.29,5.16Z" fill="#0a528e"/><path d="M706.49,309.07l-45.92-20.54,16.92-37.46-3.28,30.59a5.63,5.63,0,0,0,2.29,5.16Z" opacity="0.2"/><path d="M704.8,308.83,698,326c-9.67,32.63-36.25,37.46-36.25,37.46H588.06c-6-1.21-13.29-7.25-13.29-7.25-23,9.67-19.34,0-19.34,0-12.08,4.84-8.46-2.41-8.46-2.41-4.83,2.41-6,1.2-6,1.2-2.38-1.78,1.39-5.91,5.82-9.63a113.16,113.16,0,0,1,9.89-7.28c6.72-6.72,19.87-3.52,27.25-.94l.05,0c3.21,1.12,5.33,2.12,5.33,2.12L650.9,326l17.52-33.87Z" fill="#f5b68b"/><path d="M547,353.79a56.37,56.37,0,0,1,14.5-8.46,57.25,57.25,0,0,1-14.5,8.46Z" fill="#da874e"/><path d="M555.43,356.2a28.68,28.68,0,0,1,10.88-4.83,28.68,28.68,0,0,1-10.88,4.83Z" fill="#da874e"/><path d="M583.89,337.14c-15.78-3-31,4.61-37.14,8.22a113.16,113.16,0,0,1,9.89-7.28C563.36,331.36,576.51,334.56,583.89,337.14Z" fill="#da874e"/><path d="M542.14,607.56s3.75-9.39-5.29-10.79a8,8,0,0,0-6.69,2.16c-2.7,2.58-7.42,7-12.23,10.76a27.38,27.38,0,0,1-6.88,3.95c-6.39,2.53-19.46,8.35-14.83,12.05,0,0,4.83,2.42,30.21,1.21l42.29-1.21,1.14-25.08a1.42,1.42,0,0,0-1.48-1.5,35.48,35.48,0,0,0-17.78,6C547,607.56,545.76,607.56,542.14,607.56Z" fill="#0a528e"/><path d="M496.22,625.69a7.6,7.6,0,0,0-.74,1.54,3.4,3.4,0,0,0,3.21,4.5H565.1s4.83,0,3.62-6l-65.08,1.47A34,34,0,0,1,496.22,625.69Z" fill="#0c0c0c"/><path d="M776.25,407.17a56.68,56.68,0,0,1-56.25,57L613.44,465c-14.5-29,52-26.58,52-26.58a99.71,99.71,0,0,0,21.17-1.25c41.67-7.33,41.67-42.26,41.67-42.26L746.37,274c2.23-16.83,8.64-22.72,14.86-24.2a18.44,18.44,0,0,1,9.86.61,6.18,6.18,0,0,1,4.31,5.87Z" fill="#00396e"/><path d="M762.5,250,736,429.5a13.9,13.9,0,0,1-13.07,11.86l-36.94,1.85.63-6.08c41.67-7.33,41.67-42.26,41.67-42.26L746.37,274c2.23-16.83,8.64-22.72,14.86-24.2C762.07,250,762.5,250,762.5,250Z" opacity="0.2"/><polygon points="329.45 371.91 329.45 634.15 339.12 634.15 347.57 394.87 635.19 394.87 642.44 634.15 652.11 634.15 652.11 369.5 329.45 371.91" fill="#00396e"/><polygon points="329.45 371.91 329.45 634.15 339.12 634.15 347.57 394.87 635.19 394.87 642.44 634.15 652.11 634.15 652.11 369.5 329.45 371.91" opacity="0.2"/><rect x="301.65" y="363.45" width="378.25" height="13.29" fill="#00396e"/><path d="M522.26,333.24H384.58a4,4,0,0,1-3.86-3.08l-21.19-94.41-3.63-16.12a4,4,0,0,1,3.87-4.82H497.61a4.33,4.33,0,0,1,4.2,3.36L526.45,328A4.31,4.31,0,0,1,522.26,333.24Z" fill="#71110b"/><path d="M503.36,333.24H384.58a4,4,0,0,1-3.86-3.08l-21.19-94.41C381.33,238,472.8,252.31,503.36,333.24Z" fill="#fff" opacity="0.2"/><path d="M418.87,357.41,428.54,297l30.21-1.21-11.28,67.39H399.59v-4a1.74,1.74,0,0,1,1.73-1.73Z" fill="#71110b"/><path d="M447.47,363.17h37.75s-1.09-7-8.34-7c0,0-20.54,3.63-19.33-10.87l6-39.88-4.84-9.67Z" fill="#71110b"/><path d="M447.47,363.17h37.75s-1.09-7-8.34-7c0,0-20.54,3.63-19.33-10.87l6-39.88-4.84-9.67Z" opacity="0.2"/><rect x="379.72" y="112.71" width="61.51" height="47.18" rx="7.37" fill="#0a528e"/><path d="M416.15,133.32a5.08,5.08,0,1,0-7.17,4.62v7.62h4.18v-7.62A5.08,5.08,0,0,0,416.15,133.32Z" fill="#00396e"/></svg>