<svg xmlns="http://www.w3.org/2000/svg" version="1.1" viewBox="-5.0 -10.0 110.0 135.0">
 <g>
  <path d="m32.73 37.453c0.09375 0.015625 0.1875 0.023437 0.27734 0.023437 0.70703 0 1.3398-0.50391 1.4727-1.2266 0.15234-0.8125-0.38672-1.5977-1.1992-1.75l-10.156-1.8984 0.35938-1.0312c0.26172-0.74609-0.10547-1.5703-0.83594-1.8789l-15.59-6.5547c-0.76172-0.31641-1.6406 0.035156-1.9648 0.80078-0.32031 0.76172 0.039062 1.6445 0.80078 1.9648l14.289 6.0117-8.7266 24.934-4.5273-1.5156c-0.78125-0.26172-1.6328 0.16016-1.8984 0.94531s0.16016 1.6367 0.94531 1.8984l5.9297 1.9844c0.15625 0.054688 0.31641 0.078125 0.47656 0.078125 0.62109 0 1.1992-0.38672 1.418-1.0039l8.3203-23.766z"/>
  <path d="m95.113 55.707c-0.28906-0.77344-1.1562-1.1641-1.9336-0.875l-5.4492 2.0547-8.6992-24.859 14.965-5.9961c0.76953-0.30859 1.1445-1.1836 0.83594-1.9492-0.30859-0.76953-1.1797-1.1406-1.9492-0.83594l-16.297 6.5312c-0.74219 0.30078-1.1211 1.1328-0.85547 1.8867l0.28516 0.8125-4.4531 1.2266c-0.29688-0.27344-0.61328-0.53906-0.95312-0.79688-0.17188-0.13281-0.375-0.22656-0.58594-0.26953-8.0469-1.7578-18.035-3.6875-19.926-2.9062-3.1602 1.3008-8.9727 5.3047-12.441 7.6914l-1.5352 1.0508c-0.35547 0.23828-0.58984 0.61328-0.64844 1.0391-0.21094 1.5234-0.92578 3.5039-1.7461 5.7969-0.51172 1.418-1.0625 2.9531-1.5742 4.5938-0.16406 0.52344-0.027344 1.0938 0.35156 1.4883 1.6641 1.7188 3.6953 2.6367 5.8047 2.6367 0.29297 0 0.58984-0.019532 0.88672-0.054688 2.2695-0.27344 4.3047-1.6055 5.4414-3.5547 0.63281-1.0898 1.2578-2.7148 1.6992-4.0625 1.4453-0.26953 3.8047-0.77734 5.4688-1.1641 0.015624 0.011719 0.027343 0.023438 0.046874 0.035156l18.277 11.234 9.832 5.3789c0.003906 0 0.007812 0.003906 0.011718 0.003906 0.007813 0.003906 0.015625 0.011719 0.027344 0.019531 1.293 0.70312 1.8008 2.3789 1.1094 3.6445-0.72656 1.3281-2.2578 1.8359-3.5469 1.1367l-10.137-5.0312c-0.71094-0.35547-1.5742-0.085937-1.9688 0.59766-0.39453 0.69141-0.18359 1.5664 0.48438 2l4.9766 3.2344c1.2383 0.67969 1.6172 2.125 0.89844 3.4375-0.35938 0.66016-0.96094 1.1562-1.6484 1.3594-0.4375 0.12891-1.1133 0.19922-1.8359-0.19531l-7.7969-4.2617c-0.70703-0.38672-1.5781-0.15234-1.9961 0.52734-0.41797 0.67969-0.23437 1.5664 0.41797 2.0195l4.0977 2.8477c0.42578 0.61328 0.69922 1.832 0.17187 2.8008-0.67969 1.2422-2.3672 1.6758-3.7266 0.9375l-4.4258-2.3203c-0.58984-0.3125-1.3789-0.12891-1.8398 0.35547-0.53125 0.55859-0.55078 1.4258-0.054687 2.0117 0.51172 0.59766 0.71094 1.8125 0.15625 2.8203-0.36328 0.66797-0.98047 0.96875-1.4297 1.0977-0.77734 0.22656-1.668 0.13281-2.375-0.25391l-0.88672-0.48047c1.6758-1.9336 1.625-4.8672-0.21094-6.7305l-0.97266-0.97266c-1.1523-1.168-2.8594-1.6133-4.4375-1.3359 0.0625-1.3398-0.39453-2.7031-1.4102-3.7305l-0.97266-0.98047c-1.1562-1.168-2.8594-1.6133-4.4375-1.3359 0.003906-0.074219 0.023437-0.14453 0.023437-0.21875 0.007813-1.3281-0.50391-2.5703-1.4297-3.5078l-0.97656-0.98828c-1.2305-1.2344-3.0664-1.6484-4.7148-1.2617 0-0.042969 0.011719-0.085938 0.011719-0.12891 0.007812-1.3281-0.50391-2.5742-1.4297-3.5117l-0.97656-0.98437c-1.8555-1.875-5.1367-1.8828-7.0078-0.035157l-1.9766 1.9453c-1.9375 1.9219-1.9531 5.0664-0.027343 7.0156l0.97656 0.98047c0.84375 0.85156 1.9492 1.332 3.1406 1.4219-0.25781 0.60156-0.39453 1.2539-0.39453 1.9297-0.003906 1.3242 0.50391 2.5703 1.4375 3.5039l0.97266 0.98047c0.93359 0.94531 2.1836 1.4648 3.5195 1.4648 0.66797 0 1.3164-0.13281 1.9141-0.38281 0.10938 1.1328 0.57812 2.1914 1.3906 3.0039l0.97266 0.98047c0.93359 0.94531 2.1875 1.4688 3.5195 1.4688 0.66797 0 1.3164-0.13281 1.9141-0.38281 0.10938 1.1328 0.57812 2.1914 1.3867 3.0078l0.97656 0.98438c0.93359 0.94141 2.1836 1.4609 3.5156 1.4609 1.3164 0 2.5586-0.50781 3.4883-1.4297l0.011718-0.011718 1.6523 0.89453c0.89844 0.49219 1.9141 0.74609 2.9375 0.74609 0.57812 0 1.1602-0.082031 1.7188-0.24609 1.4102-0.41406 2.5508-1.3164 3.2188-2.5391 0.40625-0.74219 0.63281-1.5781 0.67969-2.4141l1.4375 0.75391c2.7578 1.5078 6.3125 0.51953 7.7734-2.1445 0.51562-0.94531 0.69531-1.9766 0.64062-2.957l0.39062 0.21094c1.2656 0.69141 2.7266 0.85156 4.1211 0.44141 1.4453-0.42578 2.6992-1.4453 3.4375-2.8008 0.60938-1.1133 0.84375-2.3516 0.67578-3.543l1.0547 0.52344c2.7148 1.4805 6.0273 0.44141 7.5625-2.3594 1.4648-2.6992 0.41016-6.2344-2.3086-7.7188-0.003906-0.003906-0.011719-0.003906-0.015625-0.007813-0.007813-0.003906-0.011719-0.007812-0.019531-0.011719l-9.7656-5.3438-18.227-11.184c-0.10156-0.0625-0.20703-0.10547-0.3125-0.14453-0.35547-0.35156-0.87891-0.52344-1.3984-0.39453-2.1602 0.51172-5.8125 1.2852-6.7305 1.4062-0.58984 0.078125-1.0781 0.49609-1.2422 1.0664-0.48047 1.6445-1.1758 3.4102-1.6914 4.3008-0.65625 1.125-1.8867 1.9258-3.2109 2.0859-0.88672 0.10156-2.1836-0.019531-3.5273-1.1016 0.41406-1.2617 0.83984-2.4531 1.2422-3.5703 0.77344-2.1562 1.457-4.0508 1.7812-5.7266l1.0273-0.70312c3.1523-2.168 9.0195-6.2109 11.789-7.3594 1.3945-0.26953 10.125 1.2695 17.902 2.9609 0.37109 0.30078 0.70703 0.61719 1.0234 0.9375 0.38281 0.38672 0.94141 0.53906 1.4648 0.39453l5.4727-1.5078 8.4062 24.016c0.13281 0.38281 0.41406 0.69141 0.78125 0.86328 0.19922 0.09375 0.41797 0.14062 0.63281 0.14062 0.17969 0 0.35938-0.03125 0.52734-0.097656l6.8867-2.5977c0.78125-0.28906 1.1758-1.1562 0.88281-1.9297zm-75.281 5.5781c-0.76172-0.76953-0.75781-2.0117 0.007813-2.7695l1.9766-1.9414c0.36719-0.36328 0.85938-0.56641 1.3828-0.56641 0.52734 0 1.0234 0.20313 1.3906 0.57422l0.97656 0.98438c0.36328 0.36719 0.5625 0.85938 0.5625 1.3867-0.003906 0.52734-0.20703 1.0156-0.57031 1.375l-1.9766 1.9453c-0.73828 0.73047-2.0352 0.72656-2.7695-0.011719zm6.1289 8.8164-0.98047-0.98437c-0.36328-0.36719-0.5625-0.85547-0.5625-1.3789 0-0.52734 0.20703-1.0195 0.57812-1.3867l3.9258-3.8945c0.36719-0.36328 0.85547-0.5625 1.3789-0.5625 0.52734 0 1.0234 0.20312 1.3945 0.57422l0.97656 0.98828c0.36328 0.36719 0.5625 0.85547 0.5625 1.3828s-0.20703 1.0156-0.57812 1.3828l-3.9258 3.8945c-0.74219 0.72656-2.0391 0.72656-2.7695-0.015626zm7.7969 5.0703-0.97656-0.98828c-0.36719-0.36719-0.56641-0.85547-0.5625-1.3828 0-0.52344 0.20312-1.0156 0.57422-1.3789l2.9531-2.918c0.36719-0.36328 0.85547-0.5625 1.3789-0.5625 0.53125 0 1.0234 0.20312 1.3906 0.57812l0.97266 0.98047c0.75781 0.76562 0.75391 2.0117-0.007812 2.7695l-2.9531 2.918c-0.74219 0.72656-2.0391 0.72656-2.7695-0.015625zm7.7969 5.0742-0.97656-0.98438c-0.36719-0.36719-0.56641-0.86328-0.56641-1.3906 0.003906-0.52734 0.20703-1.0156 0.57031-1.3789l1.9766-1.9414c0.36719-0.36328 0.85938-0.5625 1.3828-0.5625 0.53125 0 1.0234 0.20312 1.3945 0.57812l0.96875 0.97266c0.76172 0.76953 0.75781 2.0156-0.003907 2.7695l-1.9766 1.9414c-0.74219 0.73438-2.043 0.73047-2.7695-0.003906z"/>
 </g>
</svg>