<svg xmlns="http://www.w3.org/2000/svg" version="1.1" viewBox="-5.0 -10.0 110.0 135.0">
 <path d="m7.0312 81.32h85.938v4.6875h-85.938z"/>
 <path d="m29.297 78.422v-26.082h-10.156v26.082zm-7.8125-23.738h5.4688v21.395h-5.4688z"/>
 <path d="m36.328 78.422h10.156v-37.02h-10.156zm2.3438-34.676h5.4688v32.332h-5.4688z"/>
 <path d="m53.516 78.422h10.156v-26.082h-10.156zm2.3438-23.738h5.4688v21.395h-5.4688z"/>
 <path d="m80.859 78.422v-37.02h-10.156v37.02zm-7.8125-34.676h5.4688v32.332h-5.4688z"/>
 <path d="m41.273 27.453 17.254 12.566 25.438-18.527v2.1562h3.125v-7.4844h-7.4844v3.125h2.0742l-23.152 16.863-17.254-12.566-29.301 21.312 1.8398 2.5234z"/>
</svg>